<svg width="50" height="50" viewBox="0 0 50 50" fill="none" xmlns="http://www.w3.org/2000/svg">
<path d="M25.0001 29.1667C25.4121 29.1667 25.8149 29.0445 26.1575 28.8156C26.5001 28.5866 26.7671 28.2613 26.9248 27.8806C27.0825 27.4999 27.1238 27.081 27.0434 26.6769C26.963 26.2728 26.7646 25.9015 26.4732 25.6102C26.1819 25.3188 25.8106 25.1204 25.4065 25.04C25.0024 24.9596 24.5835 25.0009 24.2028 25.1586C23.8221 25.3163 23.4968 25.5833 23.2679 25.9259C23.0389 26.2685 22.9167 26.6713 22.9167 27.0833C22.9167 27.6359 23.1362 28.1658 23.5269 28.5565C23.9176 28.9472 24.4475 29.1667 25.0001 29.1667ZM35.4167 29.1667C35.8288 29.1667 36.2316 29.0445 36.5742 28.8156C36.9168 28.5866 37.1838 28.2613 37.3415 27.8806C37.4992 27.4999 37.5404 27.081 37.4601 26.6769C37.3797 26.2728 37.1813 25.9015 36.8899 25.6102C36.5985 25.3188 36.2273 25.1204 35.8232 25.04C35.4191 24.9596 35.0002 25.0009 34.6195 25.1586C34.2388 25.3163 33.9134 25.5833 33.6845 25.9259C33.4556 26.2685 33.3334 26.6713 33.3334 27.0833C33.3334 27.6359 33.5529 28.1658 33.9436 28.5565C34.3343 28.9472 34.8642 29.1667 35.4167 29.1667ZM25.0001 37.5C25.4121 37.5 25.8149 37.3778 26.1575 37.1489C26.5001 36.92 26.7671 36.5946 26.9248 36.2139C27.0825 35.8332 27.1238 35.4143 27.0434 35.0102C26.963 34.6061 26.7646 34.2349 26.4732 33.9435C26.1819 33.6522 25.8106 33.4537 25.4065 33.3734C25.0024 33.293 24.5835 33.3342 24.2028 33.4919C23.8221 33.6496 23.4968 33.9166 23.2679 34.2592C23.0389 34.6018 22.9167 35.0046 22.9167 35.4167C22.9167 35.9692 23.1362 36.4991 23.5269 36.8898C23.9176 37.2805 24.4475 37.5 25.0001 37.5ZM35.4167 37.5C35.8288 37.5 36.2316 37.3778 36.5742 37.1489C36.9168 36.92 37.1838 36.5946 37.3415 36.2139C37.4992 35.8332 37.5404 35.4143 37.4601 35.0102C37.3797 34.6061 37.1813 34.2349 36.8899 33.9435C36.5985 33.6522 36.2273 33.4537 35.8232 33.3734C35.4191 33.293 35.0002 33.3342 34.6195 33.4919C34.2388 33.6496 33.9134 33.9166 33.6845 34.2592C33.4556 34.6018 33.3334 35.0046 33.3334 35.4167C33.3334 35.9692 33.5529 36.4991 33.9436 36.8898C34.3343 37.2805 34.8642 37.5 35.4167 37.5ZM14.5834 29.1667C14.9955 29.1667 15.3983 29.0445 15.7409 28.8156C16.0835 28.5866 16.3505 28.2613 16.5082 27.8806C16.6658 27.4999 16.7071 27.081 16.6267 26.6769C16.5463 26.2728 16.3479 25.9015 16.0566 25.6102C15.7652 25.3188 15.394 25.1204 14.9899 25.04C14.5857 24.9596 14.1668 25.0009 13.7862 25.1586C13.4055 25.3163 13.0801 25.5833 12.8512 25.9259C12.6223 26.2685 12.5001 26.6713 12.5001 27.0833C12.5001 27.6359 12.7196 28.1658 13.1103 28.5565C13.501 28.9472 14.0309 29.1667 14.5834 29.1667ZM39.5834 8.33332H37.5001V6.24999C37.5001 5.69746 37.2806 5.16755 36.8899 4.77685C36.4992 4.38615 35.9693 4.16666 35.4167 4.16666C34.8642 4.16666 34.3343 4.38615 33.9436 4.77685C33.5529 5.16755 33.3334 5.69746 33.3334 6.24999V8.33332H16.6667V6.24999C16.6667 5.69746 16.4473 5.16755 16.0566 4.77685C15.6659 4.38615 15.136 4.16666 14.5834 4.16666C14.0309 4.16666 13.501 4.38615 13.1103 4.77685C12.7196 5.16755 12.5001 5.69746 12.5001 6.24999V8.33332H10.4167C8.75915 8.33332 7.16943 8.9918 5.99733 10.1639C4.82523 11.336 4.16675 12.9257 4.16675 14.5833V39.5833C4.16675 41.2409 4.82523 42.8306 5.99733 44.0027C7.16943 45.1748 8.75915 45.8333 10.4167 45.8333H39.5834C41.241 45.8333 42.8307 45.1748 44.0028 44.0027C45.1749 42.8306 45.8334 41.2409 45.8334 39.5833V14.5833C45.8334 12.9257 45.1749 11.336 44.0028 10.1639C42.8307 8.9918 41.241 8.33332 39.5834 8.33332ZM41.6668 39.5833C41.6668 40.1359 41.4473 40.6658 41.0566 41.0565C40.6659 41.4472 40.136 41.6667 39.5834 41.6667H10.4167C9.86421 41.6667 9.33431 41.4472 8.94361 41.0565C8.55291 40.6658 8.33342 40.1359 8.33342 39.5833V20.8333H41.6668V39.5833ZM41.6668 16.6667H8.33342V14.5833C8.33342 14.0308 8.55291 13.5009 8.94361 13.1102C9.33431 12.7195 9.86421 12.5 10.4167 12.5H39.5834C40.136 12.5 40.6659 12.7195 41.0566 13.1102C41.4473 13.5009 41.6668 14.0308 41.6668 14.5833V16.6667ZM14.5834 37.5C14.9955 37.5 15.3983 37.3778 15.7409 37.1489C16.0835 36.92 16.3505 36.5946 16.5082 36.2139C16.6658 35.8332 16.7071 35.4143 16.6267 35.0102C16.5463 34.6061 16.3479 34.2349 16.0566 33.9435C15.7652 33.6522 15.394 33.4537 14.9899 33.3734C14.5857 33.293 14.1668 33.3342 13.7862 33.4919C13.4055 33.6496 13.0801 33.9166 12.8512 34.2592C12.6223 34.6018 12.5001 35.0046 12.5001 35.4167C12.5001 35.9692 12.7196 36.4991 13.1103 36.8898C13.501 37.2805 14.0309 37.5 14.5834 37.5Z" fill="#4A4A4A"/>
</svg>
