<svg width="50" height="50" viewBox="0 0 50 50" fill="none" xmlns="http://www.w3.org/2000/svg">
<path d="M31.2501 22.9167H27.0834V14.5833C27.0834 14.0308 26.8639 13.5009 26.4732 13.1102C26.0825 12.7195 25.5526 12.5 25.0001 12.5C24.4476 12.5 23.9177 12.7195 23.527 13.1102C23.1363 13.5009 22.9168 14.0308 22.9168 14.5833V25C22.9168 25.5525 23.1363 26.0824 23.527 26.4731C23.9177 26.8638 24.4476 27.0833 25.0001 27.0833H31.2501C31.8026 27.0833 32.3325 26.8638 32.7232 26.4731C33.1139 26.0824 33.3334 25.5525 33.3334 25C33.3334 24.4475 33.1139 23.9176 32.7232 23.5268C32.3325 23.1362 31.8026 22.9167 31.2501 22.9167ZM25.0001 4.16666C20.8796 4.16666 16.8517 5.38851 13.4257 7.67771C9.99969 9.9669 7.32943 13.2206 5.7526 17.0274C4.17577 20.8342 3.76321 25.0231 4.56706 29.0644C5.37092 33.1056 7.35511 36.8178 10.2687 39.7314C13.1823 42.645 16.8944 44.6292 20.9357 45.433C24.977 46.2369 29.1659 45.8243 32.9727 44.2475C36.7795 42.6707 40.0332 40.0004 42.3224 36.5744C44.6116 33.1483 45.8334 29.1204 45.8334 25C45.8273 19.4765 43.6304 14.1811 39.7247 10.2754C35.819 6.36971 30.5236 4.1728 25.0001 4.16666ZM25.0001 41.6667C21.7037 41.6667 18.4814 40.6892 15.7406 38.8578C12.9998 37.0265 10.8636 34.4235 9.6021 31.378C8.34064 28.3326 8.01058 24.9815 8.65367 21.7485C9.29676 18.5155 10.8841 15.5458 13.215 13.2149C15.5459 10.884 18.5156 9.29666 21.7486 8.65357C24.9816 8.01048 28.3327 8.34054 31.3782 9.602C34.4236 10.8635 37.0266 12.9997 38.8579 15.7405C40.6893 18.4813 41.6668 21.7036 41.6668 25C41.6617 29.4187 39.9041 33.655 36.7796 36.7795C33.6551 39.904 29.4188 41.6616 25.0001 41.6667Z" fill="#4A4A4A"/>
</svg>
