<svg width="65" height="65" viewBox="0 0 65 65" fill="none" xmlns="http://www.w3.org/2000/svg">
<g clip-path="url(#clip0_37_271)">
<path d="M55.5099 29.25L35.6849 9.49005C33.8649 7.60505 33.4099 8.77505 33.4099 9.68505V18.785L18.6549 29.705H9.74992C7.21492 29.705 9.22992 32.435 8.83992 31.98L20.0199 43.0951L10.6599 52.5201C10.1399 53.0401 10.1399 53.885 10.6599 54.405C11.1799 54.925 12.0249 54.925 12.5449 54.405L21.9049 45.0451L33.0199 56.225C32.6949 55.9 35.3599 57.655 35.3599 55.315V46.3451L46.2799 31.59H54.5349C55.8999 31.525 57.7199 31.525 55.5099 29.25ZM12.9349 32.24H18.7199L32.8249 46.3451V52.13L12.9349 32.24ZM34.0599 43.7451L21.2549 30.94L34.3199 21.45L43.6799 30.94L34.0599 43.7451ZM45.6299 28.99L36.0099 19.37V13.585L51.4149 28.99H45.6299Z" fill="#4A4A4A"/>
<path d="M522.6 -695.5V399.1H-637V-695.5H522.6ZM527.8 -700.7H-642.2V404.3H527.8V-700.7Z" fill="#0000FF"/>
</g>
<defs>
<clipPath id="clip0_37_271">
<rect width="65" height="65" fill="white"/>
</clipPath>
</defs>
</svg>
