<svg width="50" height="50" viewBox="0 0 50 50" fill="none" xmlns="http://www.w3.org/2000/svg">
<path d="M21.6667 5C12.4817 5 5 12.4817 5 21.6667C5 30.8517 12.4817 38.3333 21.6667 38.3333C25.6608 38.3333 29.329 36.915 32.2038 34.5605L42.1549 44.5117C42.3085 44.6717 42.4925 44.7994 42.696 44.8874C42.8996 44.9753 43.1186 45.0218 43.3404 45.0241C43.5621 45.0263 43.7821 44.9843 43.9873 44.9005C44.1926 44.8167 44.3792 44.6927 44.5359 44.5359C44.6927 44.3792 44.8167 44.1926 44.9005 43.9873C44.9843 43.7821 45.0263 43.5621 45.0241 43.3404C45.0218 43.1186 44.9753 42.8996 44.8874 42.696C44.7994 42.4925 44.6717 42.3085 44.5117 42.1549L34.5605 32.2038C36.915 29.329 38.3333 25.6608 38.3333 21.6667C38.3333 12.4817 30.8517 5 21.6667 5ZM21.6667 8.33333C29.0502 8.33333 35 14.2831 35 21.6667C35 29.0502 29.0502 35 21.6667 35C14.2831 35 8.33333 29.0502 8.33333 21.6667C8.33333 14.2831 14.2831 8.33333 21.6667 8.33333Z" fill="#3A3A3A"/>
</svg>
